<?xml version="1.0"?>
<svg xmlns="http://www.w3.org/2000/svg" xmlns:xlink="http://www.w3.org/1999/xlink" version="1.1" xml:space="preserve">
  <defs>

    <symbol id="loader" width="100%" height="100%" viewBox="22 22 44 44">
      <circle cx="44" cy="44" r="20.2" fill="transparent" stroke="currentColor" stroke-width="4" />
    </symbol>

    <symbol id="burger" width="100%" height="100%" viewBox="0 0 32 32">
      <path d="M26.6667 9.33333L5.33335 9.33333" fill="transparent" stroke="currentColor" stroke-width="2" stroke-linecap="round" />
      <path d="M26.6667 16L5.33335 16" fill="transparent" stroke="currentColor" stroke-width="2" stroke-linecap="round" />
      <path d="M26.6667 22.6667L5.33335 22.6667" fill="transparent" stroke="currentColor" stroke-width="2" stroke-linecap="round" />
    </symbol>

    <symbol id="close" width="100%" height="100%" viewBox="0 0 32 32">
      <circle cx="16" cy="16" r="13.3333" fill="transparent" stroke="currentColor" stroke-width="2" />
      <path d="M19.3333 12.6667L12.6666 19.3333M12.6666 12.6666L19.3332 19.3333" fill="transparent" stroke="currentColor" stroke-width="2" stroke-linecap="round" />
    </symbol>

    <symbol id="arrow-left" width="100%" height="100%" viewBox="0 0 32 32">
      <path d="M6.29289 14.7929C5.90237 15.1834 5.90237 15.8166 6.29289 16.2071L12.6569 22.5711C13.0474 22.9616 13.6805 22.9616 14.0711 22.5711C14.4616 22.1805 14.4616 21.5474 14.0711 21.1569L8.41421 15.5L14.0711 9.84315C14.4616 9.45262 14.4616 8.81946 14.0711 8.42893C13.6805 8.03841 13.0474 8.03841 12.6569 8.42893L6.29289 14.7929ZM26 15.5V14.5L7 14.5V15.5V16.5L26 16.5V15.5Z" fill="currentColor" />
    </symbol>

    <symbol id="arrow-right" width="100%" height="100%" viewBox="0 0 32 32">
      <path d="M25.7071 17.2071C26.0976 16.8166 26.0976 16.1834 25.7071 15.7929L19.3431 9.42893C18.9526 9.03841 18.3195 9.03841 17.9289 9.42893C17.5384 9.81946 17.5384 10.4526 17.9289 10.8431L23.5858 16.5L17.9289 22.1569C17.5384 22.5474 17.5384 23.1805 17.9289 23.5711C18.3195 23.9616 18.9526 23.9616 19.3431 23.5711L25.7071 17.2071ZM6 16.5V17.5H25V16.5V15.5H6V16.5Z" fill="currentColor" />
    </symbol>

    <symbol id="success" width="100%" height="100%" viewBox="0 0 110 110">
      <path d="M55 100.833C33.3939 100.833 22.5909 100.833 15.8788 94.1213C9.16663 87.4091 9.16663 76.6061 9.16663 55.0001C9.16663 33.394 9.16663 22.591 15.8788 15.8789C22.5909 9.16675 33.3939 9.16675 55 9.16675C76.606 9.16675 87.409 9.16675 94.1211 15.8789C100.833 22.591 100.833 33.394 100.833 55.0001C100.833 76.6061 100.833 87.4091 94.1211 94.1213C87.409 100.833 76.606 100.833 55 100.833Z" fill="currentColor" />
      <path d="M73.4724 41.1111C74.8148 42.4535 74.8148 44.63 73.4724 45.9724L50.5557 68.8891C49.2133 70.2315 47.0368 70.2315 45.6944 68.8891L36.5277 59.7224C35.1853 58.38 35.1853 56.2035 36.5277 54.8611C37.8701 53.5186 40.0466 53.5186 41.3891 54.8611L48.125 61.5971L68.611 41.1111C69.9534 39.7686 72.13 39.7686 73.4724 41.1111Z" />
    </symbol>

    <symbol id="error" width="100%" height="100%" viewBox="0 0 110 110">
      <path d="M55 100.833C33.3939 100.833 22.5909 100.833 15.8788 94.1213C9.16663 87.4091 9.16663 76.6061 9.16663 55.0001C9.16663 33.394 9.16663 22.591 15.8788 15.8789C22.5909 9.16675 33.3939 9.16675 55 9.16675C76.606 9.16675 87.409 9.16675 94.1211 15.8789C100.833 22.591 100.833 33.394 100.833 55.0001C100.833 76.6061 100.833 87.4091 94.1211 94.1213C87.409 100.833 76.606 100.833 55 100.833Z" fill="currentColor" />
      <path d="M41.1109 41.1111C42.4534 39.7686 44.6299 39.7686 45.9723 41.1111L55 50.1388L64.0276 41.1112C65.37 39.7687 67.5465 39.7687 68.889 41.1112C70.2314 42.4536 70.2314 44.6301 68.889 45.9725L59.8614 55.0001L68.8889 64.0276C70.2313 65.3701 70.2313 67.5466 68.8889 68.889C67.5464 70.2314 65.3699 70.2314 64.0275 68.889L55 59.8615L45.9724 68.8891C44.63 70.2315 42.4535 70.2315 41.111 68.8891C39.7686 67.5467 39.7686 65.3702 41.111 64.0277L50.1386 55.0001L41.1109 45.9724C39.7685 44.63 39.7685 42.4535 41.1109 41.1111Z" />
    </symbol>

  </defs>
</svg>