<svg width="427" height="122" viewBox="0 0 427 122" fill="none" xmlns="http://www.w3.org/2000/svg">
  <path d="M116.396 102.321V95.641H121.926V102.321H121.058V96.3567H117.263V102.321H116.396ZM125.135 102.321V95.641H127.846C129.213 95.641 129.885 96.2266 129.885 97.4194C129.885 98.7206 128.952 99.5014 127.087 99.7833L126.914 99.0459C128.28 98.8507 128.974 98.3086 128.974 97.4411C128.974 96.7037 128.562 96.335 127.76 96.335H126.003V102.299H125.135V102.321ZM133.355 98.9592C133.355 100.759 134.179 101.67 135.784 101.67C137.389 101.67 138.169 100.759 138.169 98.9592C138.169 97.1591 137.367 96.2916 135.784 96.2916C134.201 96.2916 133.355 97.1808 133.355 98.9592ZM132.444 99.0026C132.444 96.7471 133.572 95.5977 135.784 95.5977C137.996 95.5977 139.08 96.7254 139.08 99.0026C139.08 101.28 137.974 102.386 135.784 102.386C133.593 102.386 132.444 101.258 132.444 99.0026ZM146.779 102.321V96.8121L142.919 102.321H142.052V95.641H142.876V101.15L146.736 95.641H147.603V102.321H146.779ZM150.51 95.8796C151.138 95.6844 151.746 95.5977 152.375 95.5977C153.979 95.5977 154.782 96.2049 154.782 97.4194C154.782 98.1567 154.478 98.6556 153.893 98.9375C154.478 99.1977 154.782 99.7182 154.782 100.456C154.782 101.735 153.979 102.364 152.375 102.364C151.746 102.364 151.138 102.277 150.51 102.082V101.345C151.138 101.562 151.746 101.67 152.375 101.67C153.394 101.67 153.914 101.258 153.914 100.456C153.914 99.6532 153.524 99.2845 152.743 99.2845H151.204V98.5905H152.722C153.524 98.5905 153.914 98.2001 153.914 97.4194C153.914 96.6386 153.394 96.2916 152.375 96.2916C151.746 96.2916 151.138 96.4001 150.51 96.617V95.8796ZM157.666 102.321V95.641H160.507C161.787 95.641 162.416 96.1615 162.416 97.2025C162.416 97.9616 162.004 98.5037 161.18 98.829C162.069 99.0025 162.503 99.5014 162.503 100.347C162.503 101.67 161.809 102.321 160.421 102.321H157.666ZM160.356 101.627C161.158 101.627 161.548 101.215 161.548 100.412C161.548 99.6098 161.006 99.2411 159.943 99.2411H159.575V98.6772C160.854 98.5037 161.483 98.0483 161.483 97.2893C161.483 96.6603 161.136 96.3567 160.421 96.3567H158.512V101.627H160.356ZM166.189 98.9592C166.189 100.759 167.014 101.67 168.64 101.67C170.267 101.67 171.026 100.759 171.026 98.9592C171.026 97.1591 170.223 96.2916 168.64 96.2916C167.057 96.2916 166.189 97.1808 166.189 98.9592ZM165.279 99.0026C165.279 96.7471 166.406 95.5977 168.618 95.5977C170.83 95.5977 171.915 96.7254 171.915 99.0026C171.915 101.28 170.809 102.386 168.618 102.386C166.428 102.386 165.279 101.258 165.279 99.0026ZM175.753 101.627H179.288V96.3567H177.098C177.098 99.2845 176.664 101.041 175.753 101.627ZM173.411 104.099V101.627H174.279C175.58 101.627 176.209 99.87 176.209 96.3567V95.6627H180.134V101.627H181.002V104.099H180.134V102.321H174.279V104.099H173.411ZM188.592 102.082C188.028 102.277 187.4 102.364 186.727 102.364C184.385 102.364 183.236 101.215 183.236 98.8941C183.236 96.7037 184.407 95.5977 186.727 95.5977C187.4 95.5977 188.028 95.6844 188.592 95.8796V96.617C188.028 96.4001 187.421 96.2916 186.814 96.2916C184.992 96.2916 184.081 97.1591 184.081 98.8941C184.081 100.738 184.992 101.67 186.814 101.67C187.421 101.67 188.007 101.562 188.592 101.345V102.082ZM196.139 95.641V96.335H194.036V102.299H193.168V96.335H191.065V95.641H196.139ZM198.807 102.321V95.641H201.648C202.928 95.641 203.557 96.1615 203.557 97.2025C203.557 97.9616 203.144 98.5037 202.32 98.829C203.21 99.0025 203.643 99.5014 203.643 100.347C203.643 101.67 202.949 102.321 201.561 102.321H198.807ZM201.496 101.627C202.299 101.627 202.689 101.215 202.689 100.412C202.689 99.6098 202.147 99.2411 201.084 99.2411H200.715V98.6772C201.995 98.5037 202.624 98.0483 202.624 97.2893C202.624 96.6603 202.277 96.3567 201.561 96.3567H199.653V101.627H201.496ZM207.33 98.9592C207.33 100.759 208.154 101.67 209.781 101.67C211.407 101.67 212.166 100.759 212.166 98.9592C212.166 97.1591 211.364 96.2916 209.781 96.2916C208.198 96.2916 207.33 97.1808 207.33 98.9592ZM206.419 99.0026C206.419 96.7471 207.547 95.5977 209.759 95.5977C211.971 95.5977 213.056 96.7254 213.056 99.0026C213.056 101.28 211.949 102.386 209.759 102.386C207.569 102.386 206.419 101.258 206.419 99.0026ZM220.733 102.321V95.641H221.839L224.29 101.215L226.697 95.641H227.738V102.321H226.979V96.8555L224.615 102.321H223.943L221.535 96.8555V102.321H220.776H220.733ZM235.307 95.641V96.335H231.815V98.5688H235.155V99.2628H231.815V101.605H235.393V102.299H230.969V95.6193H235.328L235.307 95.641ZM239.861 101.627H243.396V96.3567H241.206C241.206 99.2845 240.75 101.041 239.861 101.627ZM237.519 104.099V101.627H238.386C239.687 101.627 240.316 99.87 240.316 96.3567V95.6627H244.242V101.627H245.109V104.099H244.242V102.321H238.386V104.099H237.519ZM252.591 102.321V96.8121L248.731 102.321H247.864V95.641H248.688V101.15L252.548 95.641H253.415V102.321H252.591ZM256.647 102.321V95.641H257.514V101.605H260.984V95.641H261.852V101.605H262.719V104.077H261.852V102.299H256.669L256.647 102.321ZM270.31 102.321V96.8121L266.45 102.321H265.582V95.641H266.406V101.15L270.266 95.641H271.134V102.321H270.31ZM274.344 102.321V95.641H275.211V98.5254H279.006V95.641H279.874V102.321H279.006V99.2411H275.211V102.321H274.344ZM288.137 102.082C287.551 102.277 286.944 102.364 286.272 102.364C283.929 102.364 282.78 101.215 282.78 98.8941C282.78 96.7037 283.951 95.5977 286.272 95.5977C286.944 95.5977 287.573 95.6844 288.137 95.8796V96.617C287.551 96.4001 286.966 96.2916 286.358 96.2916C284.537 96.2916 283.626 97.1591 283.626 98.8941C283.626 100.738 284.537 101.67 286.358 101.67C286.966 101.67 287.551 101.562 288.137 101.345V102.082ZM295.38 102.321C294.318 100.651 293.667 99.6748 293.385 99.4363C293.103 99.1977 292.843 99.0893 292.604 99.0893V98.4604C293.103 98.4604 293.602 97.9832 294.122 97.0507C294.621 96.1181 295.185 95.641 295.771 95.641H296.269V96.3784H295.901C295.554 96.3784 295.185 96.7471 294.773 97.4844C294.361 98.2218 293.971 98.6556 293.602 98.764C293.84 98.8074 294.101 98.9809 294.361 99.2845C294.643 99.5881 295.337 100.607 296.421 102.299H295.38V102.321ZM292.062 95.641V102.321H291.195V95.641H292.062ZM299.653 98.9592C299.653 100.759 300.477 101.67 302.082 101.67C303.686 101.67 304.467 100.759 304.467 98.9592C304.467 97.1591 303.665 96.2916 302.082 96.2916C300.498 96.2916 299.653 97.1808 299.653 98.9592ZM298.742 99.0026C298.742 96.7471 299.87 95.5977 302.082 95.5977C304.294 95.5977 305.378 96.7254 305.378 99.0026C305.378 101.28 304.272 102.386 302.082 102.386C299.891 102.386 298.742 101.258 298.742 99.0026ZM308.371 102.321V95.641H312.73V96.335H309.238V102.299H308.371V102.321ZM315.831 98.9592C315.831 100.759 316.655 101.67 318.26 101.67C319.865 101.67 320.646 100.759 320.646 98.9592C320.646 97.1591 319.843 96.2916 318.26 96.2916C316.677 96.2916 315.831 97.1808 315.831 98.9592ZM314.921 99.0026C314.921 96.7471 316.048 95.5977 318.26 95.5977C320.472 95.5977 321.557 96.7254 321.557 99.0026C321.557 101.28 320.451 102.386 318.26 102.386C316.07 102.386 314.921 101.258 314.921 99.0026ZM329.906 98.9592C329.906 100.759 330.73 101.67 332.357 101.67C333.984 101.67 334.743 100.759 334.743 98.9592C334.743 97.1591 333.94 96.2916 332.357 96.2916C330.774 96.2916 329.906 97.1808 329.906 98.9592ZM328.995 99.0026C328.995 96.7471 330.123 95.5977 332.335 95.5977C334.547 95.5977 335.632 96.7254 335.632 99.0026C335.632 101.28 334.526 102.386 332.335 102.386C330.145 102.386 328.995 101.258 328.995 99.0026ZM343.309 95.641V96.335H339.514V101.605H341.422C342.16 101.605 342.528 101.215 342.528 100.434C342.528 99.6098 342.073 99.176 341.162 99.176H340.273V98.4821H341.184C342.637 98.4821 343.374 99.111 343.374 100.391C343.374 101.67 342.745 102.321 341.487 102.321H338.646V95.641H343.309ZM347.061 98.9592C347.061 100.759 347.885 101.67 349.49 101.67C351.095 101.67 351.876 100.759 351.876 98.9592C351.876 97.1591 351.073 96.2916 349.49 96.2916C347.907 96.2916 347.061 97.1808 347.061 98.9592ZM346.15 99.0026C346.15 96.7471 347.278 95.5977 349.49 95.5977C351.702 95.5977 352.786 96.7254 352.786 99.0026C352.786 101.28 351.68 102.386 349.49 102.386C347.3 102.386 346.15 101.258 346.15 99.0026ZM355.801 102.321V95.641H358.512C359.878 95.641 360.55 96.2266 360.55 97.4194C360.55 98.7206 359.618 99.5014 357.753 99.7833L357.579 99.0459C358.946 98.8507 359.64 98.3086 359.64 97.4411C359.64 96.7037 359.228 96.335 358.425 96.335H356.668V102.299H355.801V102.321ZM368.51 95.641L366.211 101.063C365.864 101.887 365.257 102.321 364.389 102.321C363.999 102.321 363.63 102.212 363.283 101.995V101.301C363.608 101.518 363.977 101.627 364.367 101.627C364.844 101.627 365.191 101.432 365.387 101.063L362.763 95.6627H363.673L365.842 100.239L367.62 95.6627H368.51V95.641ZM371.416 101.627H374.951V96.3567H372.76C372.76 99.2845 372.305 101.041 371.416 101.627ZM369.095 104.099V101.627H369.963C371.264 101.627 371.893 99.87 371.893 96.3567V95.6627H375.818V101.627H376.686V104.099H375.818V102.321H369.963V104.099H369.095ZM379.895 98.9592C379.895 100.759 380.72 101.67 382.346 101.67C383.973 101.67 384.732 100.759 384.732 98.9592C384.732 97.1591 383.929 96.2916 382.346 96.2916C380.763 96.2916 379.895 97.1808 379.895 98.9592ZM378.985 99.0026C378.985 96.7471 380.112 95.5977 382.324 95.5977C384.536 95.5977 385.621 96.7254 385.621 99.0026C385.621 101.28 384.515 102.386 382.324 102.386C380.134 102.386 378.985 101.258 378.985 99.0026ZM388.635 102.321V95.641H391.476C392.756 95.641 393.385 96.1615 393.385 97.2025C393.385 97.9616 392.973 98.5037 392.149 98.829C393.038 99.0025 393.472 99.5014 393.472 100.347C393.472 101.67 392.778 102.321 391.39 102.321H388.635ZM391.325 101.627C392.127 101.627 392.517 101.215 392.517 100.412C392.517 99.6098 391.975 99.2411 390.913 99.2411H390.544V98.6772C391.823 98.5037 392.452 98.0483 392.452 97.2893C392.452 96.6603 392.105 96.3567 391.39 96.3567H389.481V101.627H391.325ZM396.681 102.321H395.792L398.633 95.641H399.587L402.428 102.321H401.474L400.607 100.217H398.395L398.633 99.523H400.325L399.089 96.5085L396.703 102.342L396.681 102.321ZM404.988 102.321V95.641H405.855V98.5254H409.65V95.641H410.518V102.321H409.65V99.2411H405.855V102.321H404.988ZM418.434 102.321V96.8121L414.573 102.321H413.706V95.641H414.53V101.15L418.39 95.641H419.258V102.321H418.434ZM426.133 102.321V96.3567H424.224C423.508 96.3567 423.161 96.6603 423.161 97.2893C423.161 98.07 423.79 98.5688 425.07 98.764V99.3712L422.901 102.321H421.817L424.137 99.2845C422.88 98.8507 422.251 98.2001 422.251 97.3326C422.251 96.2049 422.923 95.641 424.246 95.641H427V102.321H426.133Z" fill="white" />
  <path d="M8.93514 13.4463H27.6079L18.651 31.8371H0L8.93514 13.4463ZM63.7388 84.1467C63.7388 94.9035 55.1073 103.535 44.3504 103.535C39.3406 103.535 34.7863 101.67 31.3597 98.5687C38.0611 110.236 53.5675 113.424 65.2352 107.894C84.5585 98.7422 83.691 78.3996 77.662 60.8329C76.0571 56.1918 74.0402 51.3556 71.6113 46.4976H50.6397C56.8206 56.6256 63.7388 72.1103 63.7388 84.1467ZM49.859 57.3629C70.4835 92.3661 45.6083 104.381 39.0804 96.3349C40.7286 98.2217 61.4833 96.1831 49.859 57.3629Z" fill="#EA524F" />
  <path d="M117.805 39.0383L116.374 47.2361H133.615L127.782 80.2874H137.649L143.483 47.2361H160.898L162.329 39.0383H117.805ZM163.479 80.2874H205.617L206.983 72.5017H174.713L176.383 63.0461H207.656L208.913 55.8459H177.64L179.245 46.8023H211.516L212.882 39.0166H170.744L163.5 80.2657L163.479 80.2874ZM215.81 80.2874H225.678L227.825 68.0992H246.194C249.577 68.0992 252.396 67.6221 254.674 66.6245C256.951 65.6268 258.794 64.0654 260.139 61.9183C261.505 59.7713 262.503 56.9519 263.132 53.482C263.283 52.5928 263.392 51.747 263.479 50.9446C263.565 50.1422 263.609 49.3831 263.609 48.6674C263.609 46.3686 263.175 44.5252 262.307 43.1155C261.44 41.6841 260.074 40.6648 258.252 40.0142C256.409 39.3636 254.066 39.0383 251.204 39.06H223.075L215.832 80.3091L215.81 80.2874ZM229.234 59.9014L231.49 47.2361H247.951C249.338 47.2361 250.423 47.3879 251.247 47.6915C252.049 48.0168 252.635 48.4722 252.982 49.0795C253.329 49.6867 253.502 50.4458 253.481 51.335C253.481 53.1784 253.221 54.7398 252.678 56.0194C252.136 57.2773 251.29 58.2532 250.141 58.9038C248.991 59.5544 247.517 59.9014 245.695 59.9014H229.234ZM266.645 80.2874H276.513L282.346 47.2361H307.851L302.017 80.2874H311.884L319.128 39.0383H273.888L266.645 80.2874ZM322.359 80.2874H364.498L365.864 72.5017H333.593L335.263 63.0461H366.536L367.794 55.8459H336.521L338.126 46.8023H370.397L371.763 39.0166H329.603L322.359 80.2657V80.2874ZM391.607 39.0383H381.739L374.496 80.2874H384.363L387.399 63.0461H412.904L409.867 80.2874H419.735L426.979 39.0383H417.111L414.313 54.8483H388.809L391.607 39.0383Z" fill="white" />
  <path fill-rule="evenodd" clip-rule="evenodd" d="M6.57129 84.1465C6.57129 104.966 23.5307 121.926 44.3505 121.926C60.1171 121.926 73.6716 112.188 79.332 98.4167C72.2619 109.954 60.052 114.444 48.9698 112.817C29.82 109.998 22.6415 92.9949 25.591 75.58C27.4344 64.7581 39.2756 44.307 45.3481 31.8369H65.8208L74.756 13.4461H54.2832L60.8111 0H40.4251C30.9044 19.6053 21.3837 39.1238 11.8413 58.729C7.95927 66.6883 6.57129 75.3632 6.57129 84.1465Z" fill="#00ADBE" />
</svg>