<svg width="275" height="78" viewBox="0 0 275 78" fill="none" xmlns="http://www.w3.org/2000/svg">
  <g clip-path="url(#clip0_1_8)">
    <path d="M74.9657 65.4578V61.1846H78.5275V65.4578H77.9688V61.6286H75.5244V65.4578H74.9657ZM80.5948 65.4578V61.1846H82.3408C83.2207 61.1846 83.6537 61.5592 83.6537 62.3223C83.6537 63.1547 83.0531 63.6542 81.8519 63.8485L81.7401 63.3767C82.6201 63.2519 83.0671 62.905 83.0671 62.35C83.0671 61.8783 82.8017 61.6425 82.2849 61.6425H81.1535V65.4578H80.5948ZM85.8886 63.3074C85.8886 64.4589 86.4194 65.0416 87.453 65.0416C88.4866 65.0416 88.9895 64.4589 88.9895 63.3074C88.9895 62.1558 88.4727 61.6009 87.453 61.6009C86.4334 61.6009 85.8886 62.1697 85.8886 63.3074ZM85.302 63.3351C85.302 61.8922 86.0283 61.1708 87.453 61.1708C88.8777 61.1708 89.5761 61.8922 89.5761 63.3351C89.5761 64.778 88.8638 65.4995 87.453 65.4995C86.0423 65.4995 85.302 64.778 85.302 63.3351ZM94.5347 65.4578V61.9338L92.0485 65.4578H91.4897V61.1846H92.0205V64.7086L94.5068 61.1846H95.0655V65.4578H94.5347ZM96.9372 61.3372C97.3423 61.2124 97.7334 61.1569 98.1385 61.1569C99.1721 61.1569 99.6889 61.5454 99.6889 62.3223C99.6889 62.794 99.4933 63.1131 99.1162 63.2935C99.4933 63.46 99.6889 63.7791 99.6889 64.2647C99.6889 65.0832 99.1721 65.4856 98.1385 65.4856C97.7334 65.4856 97.3423 65.4301 96.9372 65.3052V64.8335C97.3423 64.9722 97.7334 65.0416 98.1385 65.0416C98.795 65.0416 99.1302 64.778 99.1302 64.2647C99.1302 63.7513 98.8788 63.5155 98.3759 63.5155H97.3842V63.0715H98.3619C98.8788 63.0715 99.1302 62.8218 99.1302 62.3223C99.1302 61.8228 98.795 61.6009 98.1385 61.6009C97.7334 61.6009 97.3423 61.6702 96.9372 61.809V61.3372ZM101.547 65.4578V61.1846H103.376C104.201 61.1846 104.606 61.5176 104.606 62.1836C104.606 62.6692 104.34 63.016 103.809 63.2241C104.382 63.3351 104.661 63.6542 104.661 64.1953C104.661 65.0416 104.214 65.4578 103.321 65.4578H101.547ZM103.279 65.0139C103.795 65.0139 104.047 64.7503 104.047 64.2369C104.047 63.7236 103.698 63.4877 103.013 63.4877H102.776V63.127C103.6 63.016 104.005 62.7247 104.005 62.2391C104.005 61.8367 103.781 61.6425 103.321 61.6425H102.091V65.0139H103.279ZM107.036 63.3074C107.036 64.4589 107.567 65.0416 108.614 65.0416C109.662 65.0416 110.151 64.4589 110.151 63.3074C110.151 62.1558 109.634 61.6009 108.614 61.6009C107.595 61.6009 107.036 62.1697 107.036 63.3074ZM106.449 63.3351C106.449 61.8922 107.176 61.1708 108.6 61.1708C110.025 61.1708 110.724 61.8922 110.724 63.3351C110.724 64.778 110.011 65.4995 108.6 65.4995C107.19 65.4995 106.449 64.778 106.449 63.3351ZM113.196 65.0139H115.473V61.6425H114.062C114.062 63.5155 113.783 64.6393 113.196 65.0139ZM111.687 66.5955V65.0139H112.246C113.084 65.0139 113.489 63.8901 113.489 61.6425V61.1985H116.017V65.0139H116.576V66.5955H116.017V65.4578H112.246V66.5955H111.687ZM121.465 65.3052C121.102 65.4301 120.697 65.4856 120.264 65.4856C118.755 65.4856 118.015 64.7503 118.015 63.2657C118.015 61.8645 118.769 61.1569 120.264 61.1569C120.697 61.1569 121.102 61.2124 121.465 61.3372V61.809C121.102 61.6702 120.711 61.6009 120.319 61.6009C119.146 61.6009 118.56 62.1558 118.56 63.2519C118.56 64.4312 119.146 65.0277 120.319 65.0277C120.711 65.0277 121.088 64.9584 121.465 64.8196V65.2914V65.3052ZM126.326 61.1846V61.6286H124.971V65.4578H124.412V61.6286H123.057V61.1846H126.326ZM128.044 65.4578V61.1846H129.874C130.698 61.1846 131.103 61.5176 131.103 62.1836C131.103 62.6692 130.837 63.016 130.307 63.2241C130.879 63.3351 131.159 63.6542 131.159 64.1953C131.159 65.0416 130.712 65.4578 129.818 65.4578H128.044ZM129.776 65.0139C130.293 65.0139 130.544 64.7503 130.544 64.2369C130.544 63.7236 130.195 63.4877 129.51 63.4877H129.273V63.127C130.097 63.016 130.502 62.7247 130.502 62.2391C130.502 61.8367 130.279 61.6425 129.818 61.6425H128.588V65.0139H129.776ZM133.533 63.3074C133.533 64.4589 134.064 65.0416 135.111 65.0416C136.159 65.0416 136.648 64.4589 136.648 63.3074C136.648 62.1558 136.131 61.6009 135.111 61.6009C134.092 61.6009 133.533 62.1697 133.533 63.3074ZM132.946 63.3351C132.946 61.8922 133.673 61.1708 135.098 61.1708C136.522 61.1708 137.221 61.8922 137.221 63.3351C137.221 64.778 136.508 65.4995 135.098 65.4995C133.687 65.4995 132.946 64.778 132.946 63.3351ZM142.165 65.4578V61.1846H142.878L144.456 64.7503L146.006 61.1846H146.677V65.4578H146.188V61.9477L144.666 65.4578H144.233L142.682 61.9477V65.4578H142.193H142.165ZM151.552 61.1846V61.6286H149.303V63.0576H151.454V63.5016H149.303V65H151.608V65.444H148.758V61.1708H151.566L151.552 61.1846ZM154.485 65.0139H156.762V61.6425H155.351C155.351 63.5155 155.058 64.6393 154.485 65.0139ZM152.976 66.5955V65.0139H153.535C154.373 65.0139 154.778 63.8901 154.778 61.6425V61.1985H157.306V65.0139H157.865V66.5955H157.306V65.4578H153.535V66.5955H152.976ZM162.684 65.4578V61.9338L160.198 65.4578H159.639V61.1846H160.17V64.7086L162.656 61.1846H163.215V65.4578H162.684ZM165.296 65.4578V61.1846H165.855V65H168.09V61.1846H168.648V65H169.207V66.5816H168.648V65.444H165.31L165.296 65.4578ZM174.096 65.4578V61.9338L171.61 65.4578H171.051V61.1846H171.582V64.7086L174.068 61.1846H174.627V65.4578H174.096ZM176.694 65.4578V61.1846H177.253V63.0299H179.697V61.1846H180.256V65.4578H179.697V63.4877H177.253V65.4578H176.694ZM185.578 65.3052C185.2 65.4301 184.809 65.4856 184.376 65.4856C182.868 65.4856 182.127 64.7503 182.127 63.2657C182.127 61.8645 182.882 61.1569 184.376 61.1569C184.809 61.1569 185.214 61.2124 185.578 61.3372V61.809C185.2 61.6702 184.823 61.6009 184.432 61.6009C183.259 61.6009 182.672 62.1558 182.672 63.2519C182.672 64.4312 183.259 65.0277 184.432 65.0277C184.823 65.0277 185.2 64.9584 185.578 64.8196V65.2914V65.3052ZM190.243 65.4578C189.558 64.3895 189.139 63.7652 188.958 63.6126C188.776 63.46 188.609 63.3906 188.455 63.3906V62.9883C188.776 62.9883 189.097 62.683 189.433 62.0864C189.754 61.4899 190.117 61.1846 190.494 61.1846H190.815V61.6563H190.578C190.355 61.6563 190.117 61.8922 189.852 62.3639C189.586 62.8356 189.335 63.1131 189.097 63.1825C189.251 63.2102 189.419 63.3212 189.586 63.5155C189.768 63.7097 190.215 64.3618 190.913 65.444H190.243V65.4578ZM188.106 61.1846V65.4578H187.547V61.1846H188.106ZM192.994 63.3074C192.994 64.4589 193.525 65.0416 194.559 65.0416C195.592 65.0416 196.095 64.4589 196.095 63.3074C196.095 62.1558 195.579 61.6009 194.559 61.6009C193.539 61.6009 192.994 62.1697 192.994 63.3074ZM192.408 63.3351C192.408 61.8922 193.134 61.1708 194.559 61.1708C195.984 61.1708 196.682 61.8922 196.682 63.3351C196.682 64.778 195.97 65.4995 194.559 65.4995C193.148 65.4995 192.408 64.778 192.408 63.3351ZM198.61 65.4578V61.1846H201.417V61.6286H199.168V65.4578H198.61ZM203.415 63.3074C203.415 64.4589 203.945 65.0416 204.979 65.0416C206.013 65.0416 206.515 64.4589 206.515 63.3074C206.515 62.1558 205.999 61.6009 204.979 61.6009C203.959 61.6009 203.415 62.1697 203.415 63.3074ZM202.828 63.3351C202.828 61.8922 203.554 61.1708 204.979 61.1708C206.404 61.1708 207.102 61.8922 207.102 63.3351C207.102 64.778 206.39 65.4995 204.979 65.4995C203.568 65.4995 202.828 64.778 202.828 63.3351ZM212.48 63.3074C212.48 64.4589 213.01 65.0416 214.058 65.0416C215.106 65.0416 215.595 64.4589 215.595 63.3074C215.595 62.1558 215.078 61.6009 214.058 61.6009C213.038 61.6009 212.48 62.1697 212.48 63.3074ZM211.893 63.3351C211.893 61.8922 212.619 61.1708 214.044 61.1708C215.469 61.1708 216.167 61.8922 216.167 63.3351C216.167 64.778 215.455 65.4995 214.044 65.4995C212.633 65.4995 211.893 64.778 211.893 63.3351ZM221.112 61.1846V61.6286H218.667V65H219.897C220.372 65 220.609 64.7503 220.609 64.2508C220.609 63.7236 220.316 63.4461 219.729 63.4461H219.156V63.0021H219.743C220.679 63.0021 221.154 63.4045 221.154 64.2231C221.154 65.0416 220.749 65.4578 219.939 65.4578H218.109V61.1846H221.112ZM223.528 63.3074C223.528 64.4589 224.059 65.0416 225.093 65.0416C226.126 65.0416 226.629 64.4589 226.629 63.3074C226.629 62.1558 226.112 61.6009 225.093 61.6009C224.073 61.6009 223.528 62.1697 223.528 63.3074ZM222.942 63.3351C222.942 61.8922 223.668 61.1708 225.093 61.1708C226.517 61.1708 227.216 61.8922 227.216 63.3351C227.216 64.778 226.503 65.4995 225.093 65.4995C223.682 65.4995 222.942 64.778 222.942 63.3351ZM229.157 65.4578V61.1846H230.903C231.783 61.1846 232.216 61.5592 232.216 62.3223C232.216 63.1547 231.616 63.6542 230.414 63.8485L230.303 63.3767C231.183 63.2519 231.63 62.905 231.63 62.35C231.63 61.8783 231.364 61.6425 230.847 61.6425H229.716V65.4578H229.157ZM237.343 61.1846L235.862 64.6531C235.638 65.1804 235.247 65.4578 234.689 65.4578C234.437 65.4578 234.2 65.3885 233.976 65.2497V64.8058C234.186 64.9445 234.423 65.0139 234.675 65.0139C234.982 65.0139 235.205 64.889 235.331 64.6531L233.641 61.1985H234.228L235.624 64.1259L236.77 61.1985H237.343V61.1846ZM239.214 65.0139H241.491V61.6425H240.08C240.08 63.5155 239.787 64.6393 239.214 65.0139ZM237.72 66.5955V65.0139H238.278C239.116 65.0139 239.522 63.8901 239.522 61.6425V61.1985H242.05V65.0139H242.608V66.5955H242.05V65.4578H238.278V66.5955H237.72ZM244.676 63.3074C244.676 64.4589 245.206 65.0416 246.254 65.0416C247.302 65.0416 247.791 64.4589 247.791 63.3074C247.791 62.1558 247.274 61.6009 246.254 61.6009C245.234 61.6009 244.676 62.1697 244.676 63.3074ZM244.089 63.3351C244.089 61.8922 244.815 61.1708 246.24 61.1708C247.665 61.1708 248.363 61.8922 248.363 63.3351C248.363 64.778 247.651 65.4995 246.24 65.4995C244.829 65.4995 244.089 64.778 244.089 63.3351ZM250.305 65.4578V61.1846H252.135C252.959 61.1846 253.364 61.5176 253.364 62.1836C253.364 62.6692 253.098 63.016 252.568 63.2241C253.14 63.3351 253.42 63.6542 253.42 64.1953C253.42 65.0416 252.973 65.4578 252.079 65.4578H250.305ZM252.037 65.0139C252.554 65.0139 252.805 64.7503 252.805 64.2369C252.805 63.7236 252.456 63.4877 251.771 63.4877H251.534V63.127C252.358 63.016 252.763 62.7247 252.763 62.2391C252.763 61.8367 252.54 61.6425 252.079 61.6425H250.85V65.0139H252.037ZM255.487 65.4578H254.914L256.744 61.1846H257.359L259.188 65.4578H258.574L258.015 64.1121H256.59L256.744 63.6681H257.833L257.037 61.7396L255.501 65.4717L255.487 65.4578ZM260.837 65.4578V61.1846H261.395V63.0299H263.84V61.1846H264.398V65.4578H263.84V63.4877H261.395V65.4578H260.837ZM269.497 65.4578V61.9338L267.01 65.4578H266.452V61.1846H266.982V64.7086L269.469 61.1846H270.027V65.4578H269.497ZM274.455 65.4578V61.6425H273.226C272.765 61.6425 272.542 61.8367 272.542 62.2391C272.542 62.7385 272.947 63.0576 273.771 63.1825V63.571L272.374 65.4578H271.676L273.17 63.5155C272.36 63.238 271.955 62.8218 271.955 62.2668C271.955 61.5454 272.388 61.1846 273.24 61.1846H275.014V65.4578H274.455Z" fill="#2C425A" />
    <path d="M5.75477 8.60192H17.7811L12.0124 20.3671H0L5.75477 8.60192ZM41.0517 53.8314C41.0517 60.7129 35.4924 66.2348 28.5644 66.2348C25.3378 66.2348 22.4045 65.0416 20.1976 63.0576C24.5137 70.5219 34.5007 72.5614 42.0154 69.0235C54.4608 63.1686 53.9021 50.1547 50.019 38.9168C48.9854 35.9477 47.6864 32.8538 46.122 29.746H32.615C36.5959 36.2252 41.0517 46.1313 41.0517 53.8314ZM32.1122 36.6969C45.3957 59.0896 29.3745 66.7759 25.1702 61.6286C26.2317 62.8356 39.599 61.5315 32.1122 36.6969Z" fill="#EA524F" />
    <path d="M75.8736 24.9733L74.9518 30.2177H86.0562L82.2989 51.3618H88.6543L92.4116 30.2177H103.628L104.55 24.9733H75.8736ZM105.29 51.3618H132.43L133.31 46.381H112.525L113.601 40.3319H133.743L134.553 35.7257H114.411L115.445 29.9402H136.229L137.109 24.9594H109.969L105.304 51.3479L105.29 51.3618ZM138.995 51.3618H145.35L146.733 43.5646H158.564C160.743 43.5646 162.558 43.2593 164.025 42.6211C165.492 41.9829 166.679 40.984 167.545 39.6105C168.425 38.2369 169.067 36.4333 169.473 34.2134C169.57 33.6446 169.64 33.1035 169.696 32.5902C169.752 32.0768 169.78 31.5912 169.78 31.1334C169.78 29.6628 169.5 28.4835 168.942 27.5816C168.383 26.666 167.503 26.0139 166.33 25.5977C165.142 25.1814 163.634 24.9733 161.79 24.9872H143.674L139.009 51.3757L138.995 51.3618ZM147.641 38.3202L149.093 30.2177H159.695C160.589 30.2177 161.287 30.3148 161.818 30.5091C162.335 30.7172 162.712 31.0085 162.936 31.397C163.159 31.7855 163.271 32.2711 163.257 32.8399C163.257 34.0192 163.089 35.0181 162.74 35.8367C162.391 36.6414 161.846 37.2657 161.106 37.682C160.365 38.0982 159.416 38.3202 158.242 38.3202H147.641ZM171.735 51.3618H178.091L181.848 30.2177H198.274L194.517 51.3618H200.872L205.538 24.9733H176.401L171.735 51.3618ZM207.619 51.3618H234.758L235.638 46.381H214.854L215.93 40.3319H236.071L236.882 35.7257H216.74L217.774 29.9402H238.558L239.438 24.9594H212.284L207.619 51.3479V51.3618ZM252.218 24.9733H245.863L241.198 51.3618H247.553L249.509 40.3319H265.935L263.979 51.3618H270.335L275 24.9733H268.645L266.843 35.0875H250.416L252.218 24.9733Z" fill="#2C425A" />
    <path fill-rule="evenodd" clip-rule="evenodd" d="M4.23227 53.8314C4.23227 67.1505 15.1552 78 28.5644 78C38.719 78 47.449 71.7705 51.0946 62.9605C46.541 70.3415 38.6771 73.2134 31.5395 72.1729C19.2059 70.3693 14.5825 59.492 16.4821 48.3511C17.6694 41.428 25.2959 28.3586 29.2069 20.3671H42.3926L48.1473 8.60192H34.9616L39.166 0H26.0362C19.9043 12.5422 13.7723 25.0427 7.62647 37.571C5.12621 42.6489 4.23227 48.2124 4.23227 53.8314Z" fill="#00ADBE" />
  </g>
  <defs>
    <clipPath id="clip0_1_8">
      <rect width="275" height="78" fill="white" />
    </clipPath>
  </defs>
</svg>