<svg width="74" height="84" viewBox="0 0 74 84" fill="none" xmlns="http://www.w3.org/2000/svg">
  <path d="M37 0C57.4345 5.12507e-07 74 16.4725 74 36.792C73.9998 65.7323 41.3993 82.021 37.4004 83.9102C37.1442 84.0311 36.8558 84.0311 36.5996 83.9102C32.6007 82.021 0.000204504 65.7323 0 36.792C0 16.4725 16.5655 0 37 0ZM37 21.0244C28.2424 21.0244 21.1427 28.0837 21.1426 36.792C21.1426 45.5004 28.2423 52.5596 37 52.5596C45.7576 52.5596 52.8574 45.5003 52.8574 36.792C52.8573 28.0837 45.7576 21.0244 37 21.0244Z" fill="#00ADBE" />
  <ellipse cx="36.9975" cy="36.7923" rx="15.8571" ry="15.7679" fill="white" />
</svg>